<?xml version="1.0" standalone="no"?>
<!DOCTYPE svg PUBLIC "-//W3C//DTD SVG 20010904//EN"
 "http://www.w3.org/TR/2001/REC-SVG-20010904/DTD/svg10.dtd">
<svg version="1.0" xmlns="http://www.w3.org/2000/svg"
 width="260.000000pt" height="260.000000pt" viewBox="0 0 260.000000 260.000000"
 preserveAspectRatio="xMidYMid meet">
<metadata>
Created by potrace 1.14, written by Peter Selinger 2001-2017
</metadata>
<g transform="translate(0.000000,260.000000) scale(0.100000,-0.100000)"
fill="#000000" stroke="none">
<path d="M1207 2022 c-14 -3 -17 -16 -17 -80 -2 -557 1 -1356 5 -1360 3 -4 39
-6 80 -7 l75 -1 1 36 c0 19 1 344 2 722 2 605 0 688 -13 689 -37 3 -118 4
-133 1z"/>
<path d="M1462 1300 l3 -725 77 0 c43 0 79 4 81 10 2 6 3 332 3 725 l-1 715
-83 0 -82 0 2 -725z"/>
<path d="M180 1770 c-1 -22 -1 -236 -1 -475 0 -239 0 -450 1 -468 l0 -32 70 0
70 0 0 355 1 355 377 -383 378 -384 -2 504 c0 276 -2 508 -2 514 -2 11 -124
14 -132 2 -3 -4 -5 -162 -5 -352 0 -190 -2 -346 -5 -346 -5 0 -207 205 -688
696 -29 30 -55 54 -58 54 -2 0 -4 -18 -4 -40z"/>
<path d="M1740 1705 l0 -60 340 0 341 0 -3 60 -3 60 -337 0 -338 0 0 -60z"/>
<path d="M1740 1285 l0 -60 328 0 327 0 3 58 c2 31 -1 57 -5 58 -4 0 -153 1
-331 2 l-322 2 0 -60z"/>
<path d="M1744 911 c-2 -2 -4 -29 -4 -60 l0 -56 340 0 340 0 0 60 0 60 -336 0
c-185 0 -338 -2 -340 -4z"/>
</g>
</svg>
